<svg width="400" height="225" xmlns="http://www.w3.org/2000/svg" xmlns:svg="http://www.w3.org/2000/svg" xmlns:xlink="http://www.w3.org/1999/xlink">
 <style type="text/css">.st0{opacity:0.15;}
	.st1{fill:#D94D6A;}
	.st2{fill:#F6C358;}
	.st3{fill:#92CAB1;}
	.st4{fill:#ED7864;}
	.st5{fill:#50B5D8;}
	.st6{fill:none;}</style>

 <title>dialog cards</title>
 <g display="inline">
  <title>Layer 1</title>
  <g id="dialog_cards">
   <g id="svg_2">
    <g id="svg_3">
     <g id="svg_4" class="st0">
      <path id="svg_5" d="m118.600006,73.699997l159.100006,-28.800003c8.5,-1.5 16.599976,4.100006 18.200012,12.600006l16.199951,89.600006c1.5,8.5 -4.099976,16.600006 -12.599976,18.199982l-159.100006,28.700012c-8.5,1.5 -16.600006,-4.100006 -18.200012,-12.600006l-16.199982,-89.599991c-1.600006,-8.5 4.100006,-16.600006 12.600006,-18.100006z"/>
     </g>
     <path id="svg_6" d="m118.200012,70.399994l158.5,-29.099991c8.5,-1.600006 16.599976,4 18.099976,12.5l16.400024,89.199997c1.599976,8.5 -4,16.600006 -12.5,18.100006l-158.5,29.100006c-8.5,1.599976 -16.600006,-4 -18.100006,-12.5l-16.399994,-89.200012c-1.600006,-8.5 4,-16.600006 12.5,-18.100006z" class="st1"/>
    </g>
    <g id="svg_7">
     <g id="svg_8" class="st0">
      <path id="svg_9" d="m120.399994,57.100006l161.000031,-14.900009c8.599976,-0.800003 16.199951,5.5 17,14.100006l8.399963,90.599991c0.799988,8.600006 -5.5,16.200012 -14.099976,17l-161,14.899994c-8.600006,0.800018 -16.200012,-5.5 -17,-14.099976l-8.400024,-90.600006c-0.799988,-8.600006 5.5,-16.200012 14.100006,-17z"/>
     </g>
     <path id="svg_10" d="m120.399994,54.199997l161.000031,-14.899994c8.599976,-0.800003 16.199951,5.5 17,14.099991l8.399963,90.600006c0.799988,8.600006 -5.5,16.200012 -14.099976,17l-161,14.899994c-8.600006,0.800018 -16.200012,-5.5 -17,-14.100006l-8.400024,-90.599991c-0.799988,-8.5 5.5,-16.199997 14.100006,-17z" class="st2"/>
    </g>
    <g id="svg_11">
     <g id="svg_12" class="st0">
      <path id="svg_13" d="m121.5,42.100006l161.700012,0c8.599976,0 15.599976,7 15.599976,15.599991l0,91.000015c0,8.599976 -7,15.599976 -15.599976,15.599976l-161.700012,0c-8.600006,0 -15.600006,-7 -15.600006,-15.599976l0,-91.000015c0,-8.599991 7,-15.599991 15.600006,-15.599991z"/>
     </g>
     <path id="svg_14" d="m121.5,39.300003l161.700012,0c8.599976,0 15.599976,7 15.599976,15.599991l0,91c0,8.600006 -7,15.600006 -15.599976,15.600006l-161.700012,0c-8.600006,0 -15.600006,-7 -15.600006,-15.600006l0,-91c0,-8.699997 7,-15.599991 15.600006,-15.599991z" class="st3"/>
    </g>
    <path id="svg_15" d="m180.600006,114c-2.199982,0 -4.399994,-0.100006 -6.600006,-0.399994c-6,5.299988 -13.200012,9.099991 -21,11.099991c-1.700012,0.5 -3.5,0.800003 -5.200012,1c-1.099976,0.100006 -2,-0.699997 -2.199982,-1.699997l0,0c-0.199982,-1.100006 0.600006,-1.800003 1.199982,-2.699997c2.900024,-3.300003 6.200012,-6 8.300018,-13.600006c-9.399994,-5.300003 -15.399994,-13.599991 -15.399994,-22.899994c0,-16.100006 18.299988,-29.300003 41,-29.300003s41,13.100006 41,29.300003s-18.5,29.199997 -41.100006,29.199997z" class="st4"/>
    <path id="svg_16" d="m177.700012,101.800003c0,-17.100006 19.399994,-30.900009 43.299988,-30.900009s43.299988,13.900009 43.299988,30.900009c0,9.800003 -6.399963,18.599991 -16.299988,24.199997c2.299988,8.100006 5.799988,11 8.799988,14.399994c0.700012,0.899994 1.600037,1.600006 1.299988,2.800018l0,0c-0.199951,1.099976 -1.199951,1.899994 -2.299988,1.799988c-1.899963,-0.200012 -3.700012,-0.600006 -5.5,-1.100006c-8.200012,-2 -15.899963,-6 -22.299988,-11.699982c-2.299988,0.299988 -4.700012,0.399994 -7,0.399994c-23.899994,0.100006 -43.299988,-13.700012 -43.299988,-30.800003z" class="st5"/>
   </g>
   <rect x="1" y="1" id="svg_17" height="225" width="400" class="st6"/>
  </g>
  <text transform="rotate(-2.27245, 216, -6.59998)" xml:space="preserve" text-anchor="middle" font-family="serif" font-size="24" id="svg_19" y="1.400024" x="216" stroke-linecap="null" stroke-linejoin="null" stroke-dasharray="null" stroke-width="0" stroke="#000000" fill="#000000"/>
  <text transform="matrix(1.33394, 0, 0, 1.18299, -74.4675, 2.79853)" font-weight="bold" xml:space="preserve" text-anchor="middle" font-family="Sans-serif" font-size="24" id="svg_20" y="131.464734" x="190.764532" stroke-linecap="null" stroke-linejoin="null" stroke-dasharray="null" stroke-width="0" stroke="#000000" fill="#000000">Papi Jo</text>
  <image xlink:href="images/logo.png" id="svg_1" y="45.399994" x="268.5"/>
  <image xlink:href="images/logo.png" id="svg_22" y="11.399994" x="31.5"/>
 </g>
</svg>